<?xml version="1.0" encoding="utf-8"?>
<!-- Generator: Adobe Illustrator 21.0.2, SVG Export Plug-In . SVG Version: 6.00 Build 0)  -->
<svg version="1.1" id="Layer_1" xmlns="http://www.w3.org/2000/svg" xmlns:xlink="http://www.w3.org/1999/xlink" x="0px" y="0px"
	 viewBox="0 0 401 125" style="enable-background:new 0 0 401 125;" xml:space="preserve">
<style type="text/css">
	.st0{fill:#FD9A2B;}
	.st1{fill:#404041;}
</style>
<g>
	<path class="st0" d="M339.2,1c8.5,0,16.5,1.6,24,4.8c7.5,3.2,14.1,7.6,19.7,13.2c5.6,5.6,10.1,12.2,13.3,19.6
		c3.3,7.5,4.9,15.4,4.9,23.9c0,8.5-1.6,16.5-4.9,23.9c-3.2,7.4-7.7,13.9-13.3,19.5c-5.6,5.5-12.2,9.9-19.7,13.1
		c-7.5,3.2-15.5,4.8-24,4.8c-8.5,0-16.5-1.6-24-4.8c-7.5-3.2-14.1-7.6-19.7-13.1c-5.6-5.5-10.1-12-13.3-19.5
		c-3.2-7.5-4.9-15.5-4.9-23.9c0-8.5,1.6-16.5,4.9-23.9c3.3-7.5,7.7-14,13.3-19.6c5.6-5.6,12.2-10,19.7-13.2
		C322.7,2.6,330.7,1,339.2,1z M339.2,13.3c-6.8,0-13.2,1.3-19.2,3.9c-5.9,2.6-11.1,6.1-15.4,10.6c-4.4,4.5-7.8,9.7-10.3,15.7
		c-2.5,6-3.8,12.3-3.8,19c0,6.7,1.3,13.1,3.8,19c2.5,5.9,6,11.1,10.4,15.6c4.4,4.4,9.6,8,15.5,10.6c5.9,2.6,12.3,3.9,19,3.9
		c6.7,0,13-1.3,19-3.9c5.9-2.6,11.1-6.2,15.5-10.6c4.4-4.5,7.9-9.7,10.4-15.6c2.5-6,3.8-12.3,3.8-19c0-6.7-1.2-13-3.8-19
		c-2.5-6-6-11.2-10.3-15.7c-4.4-4.5-9.5-8-15.4-10.6C352.4,14.6,346,13.3,339.2,13.3z"/>
	<g>
		<path class="st1" d="M14.3,106h33.2v12.3H1.1V-0.5h13.2V106z"/>
		<path class="st1" d="M81.4-0.5H143v12.3H94.6v35.3h46.9v12.3H94.6V106H143v12.3H81.4V-0.5z"/>
		<path class="st1" d="M214.1,90.1L248-0.5h14.3l-48.2,125.8L165.9-0.5h14.4L214.1,90.1z"/>
	</g>
</g>
</svg>
